# xmcd
#
# Track frame offsets: 
#        150
#        14649
#        32581
#        51265
#        65444
#        86125
#        102561
#        118713
#        137210
#        153036
#        173943
#        196275
#
# Disc length: 2826 seconds
#
# Revision: 0
# Processed by: cddbd v1.5.2PL0 Copyright (c) Steve Scherf et al.
# Submitted via: ExactAudioCopyFreeDBPlugin 1.0
#
DISCID=a60b080c
DTITLE=Hellbillies - Søvnlaus
DYEAR=2016
DGENRE=Country
TTITLE0=Søvnlaus
TTITLE1=Trollet
TTITLE2=Ny sang kan ta te
TTITLE3=Steingrunn
TTITLE4=Du fall på meg
TTITLE5=Gamal lærdom
TTITLE6=Vaken i natt
TTITLE7=20 år på vegen
TTITLE8=Tid eg ikkje har
TTITLE9=Dei usynlige
TTITLE10=På tur
TTITLE11=Natta Norge
EXTD=
EXTT0=
EXTT1=
EXTT2=
EXTT3=
EXTT4=
EXTT5=
EXTT6=
EXTT7=
EXTT8=
EXTT9=
EXTT10=
EXTT11=
PLAYORDER=
